<?xml version="1.0" encoding="UTF-8"?>
<svg version="1.1" xmlns="http://www.w3.org/2000/svg" width="1920" height="1280">
<path d="M0 0 C633.6 0 1267.2 0 1920 0 C1920 422.4 1920 844.8 1920 1280 C1286.4 1280 652.8 1280 0 1280 C0 857.6 0 435.2 0 0 Z " fill="#FDCA00" transform="translate(0,0)"/>
<path d="M0 0 C248.16 0 496.32 0 752 0 C751.15152265 4.24238673 750.02326592 8.17408317 748.63671875 12.25 C748.4034639 12.94456299 748.17020905 13.63912598 747.92988586 14.35473633 C747.18528899 16.57080103 746.43670347 18.78548887 745.6875 21 C744.94947872 23.18609927 744.21241489 25.37250902 743.47724915 27.55957031 C743.02148293 28.91498228 742.56412485 30.26986077 742.10466003 31.62402344 C740.70720411 35.77427433 739.39639671 39.94568562 738.11743164 44.1340332 C735.96096025 51.17783624 733.67126004 58.1738773 731.359375 65.16796875 C730.91550944 66.51449896 730.4718087 67.86108351 730.02825928 69.2077179 C729.08955119 72.05741982 728.15033312 74.9069528 727.21069336 77.75634766 C719.88475459 99.97593195 712.60335604 122.20805219 705.5 144.5 C704.2383999 148.45837117 702.97679761 152.41674159 701.71484375 156.375 C701.41116379 157.3275618 701.10748383 158.2801236 700.79460144 159.2615509 C697.56309846 169.38704125 694.29052508 179.49912723 691.00341797 189.60668945 C690.38191615 191.51779948 689.76097439 193.42909175 689.140625 195.34057617 C688.29467833 197.94636092 687.44657223 200.55143131 686.59765625 203.15625 C686.34746231 203.92751221 686.09726837 204.69877441 685.8394928 205.4934082 C684.11509518 210.76980964 684.11509518 210.76980964 683 213 C692.20356916 206.38301136 701.3837427 199.73691036 710.5 193 C720.3539337 185.72038129 730.28574624 178.55169467 740.22949219 171.39550781 C748.68593036 165.3076125 757.11888909 159.19131259 765.5 153 C773.87948458 146.80988881 782.31107363 140.69525691 790.76611328 134.60888672 C794.51359769 131.90987882 798.25661201 129.20468506 802 126.5 C806.48610379 123.25868547 810.97304831 120.01858046 815.46484375 116.78515625 C823.17462973 111.23195376 830.85757631 105.64562795 838.5 100 C848.35407821 92.72057378 858.28574334 85.55169676 868.22949219 78.39550781 C876.68593036 72.3076125 885.11888909 66.19131259 893.5 60 C901.87948458 53.80988881 910.31107363 47.69525691 918.76611328 41.60888672 C921.7632162 39.45031751 924.75742271 37.28775523 927.75097656 35.12426758 C929.2403187 34.04864956 930.73054205 32.97425056 932.22167969 31.90112305 C936.15338562 29.06955359 940.06618504 26.21564254 943.95703125 23.328125 C945.17616211 22.4299707 945.17616211 22.4299707 946.41992188 21.51367188 C947.97719878 20.36573633 949.52957419 19.21111163 951.07617188 18.04882812 C951.77935547 17.53255859 952.48253906 17.01628906 953.20703125 16.484375 C954.12705933 15.79939941 954.12705933 15.79939941 955.06567383 15.10058594 C957.44743922 13.74541764 959.26288027 13.20469913 962 13 C964.02612305 13.96533203 964.02612305 13.96533203 966.01171875 15.5078125 C966.7601001 16.0757251 967.50848145 16.6436377 968.27954102 17.22875977 C969.07416748 17.85451904 969.86879395 18.48027832 970.6875 19.125 C972.39770107 20.42935156 974.10865634 21.73271475 975.8203125 23.03515625 C976.6855957 23.70047363 977.55087891 24.36579102 978.44238281 25.05126953 C982.26305569 27.96236259 986.15859594 30.76458729 990.0625 33.5625 C991.55485101 34.63779394 993.04703836 35.71331505 994.5390625 36.7890625 C996.02595521 37.85949511 997.5129343 38.92980773 999 40 C1009.00550398 47.20063208 1018.97688478 54.44250786 1028.89208984 61.76708984 C1037.21502749 67.90919634 1045.60432215 73.95790683 1054 80 C1064.00550398 87.20063208 1073.97688478 94.44250786 1083.89208984 101.76708984 C1091.4766884 107.36432174 1099.1158833 112.88408627 1106.76611328 118.39111328 C1111.26523169 121.63146195 1115.75824119 124.88027702 1120.25244141 128.12744141 C1123.987945 130.82598022 1127.7248148 133.52257953 1131.46484375 136.21484375 C1139.97920681 142.34756679 1148.45216202 148.53232789 1156.89208984 154.76708984 C1165.21502749 160.90919634 1173.60432215 166.95790683 1182 173 C1191.224453 179.63853538 1200.42695937 186.30193966 1209.5625 193.0625 C1218.28000814 199.51226579 1227.11786391 205.77982057 1236 212 C1230.41956483 193.80522338 1224.65934331 175.68112166 1218.69100952 157.60916138 C1216.49066189 150.94469274 1214.29905538 144.2773551 1212.109375 137.609375 C1211.77911096 136.60386943 1211.77911096 136.60386943 1211.44217491 135.57805061 C1206.97083736 121.95944519 1202.6032946 108.30864181 1198.26119995 94.64834595 C1193.87977003 80.87501284 1189.41496102 67.13056879 1184.89453125 53.40234375 C1184.63043142 52.60007418 1184.3663316 51.7978046 1184.09422874 50.97122383 C1181.44570814 42.92682074 1178.79329723 34.88372005 1176.13208294 26.84350681 C1175.1428558 23.85319566 1174.15586339 20.86214987 1173.16930199 17.87095833 C1172.70485202 16.46481139 1172.23929947 15.05902811 1171.7726078 13.65362358 C1171.13156531 11.72308438 1170.49438706 9.79126331 1169.85742188 7.859375 C1169.316922 6.22693848 1169.316922 6.22693848 1168.76550293 4.56152344 C1168 2 1168 2 1168 0 C1416.16 0 1664.32 0 1920 0 C1920 140.91 1920 281.82 1920 427 C1286.4 427 652.8 427 0 427 C0 286.09 0 145.18 0 0 Z " fill="#E92839" transform="translate(0,853)"/>
<path d="M0 0 C293.7 0 587.4 0 890 0 C887.75017283 10.12422228 887.75017283 10.12422228 886.09228516 15.13964844 C885.54128647 16.8174942 885.54128647 16.8174942 884.97915649 18.52923584 C884.58642548 19.71068176 884.19369446 20.89212769 883.7890625 22.109375 C883.1632341 24.01067532 882.53740683 25.91197601 881.91164207 27.81329727 C881.03978399 30.45868261 880.16394506 33.10274313 879.28814697 35.74682617 C877.76226608 40.35606787 876.24244633 44.96731088 874.72299194 49.57867432 C873.91659245 52.02466525 873.10861278 54.47013604 872.29873657 56.91497803 C870.07865422 63.6362009 867.94566823 70.3777901 865.87835693 77.14752197 C864.86111056 80.45104566 863.78592261 83.72660459 862.67578125 87 C862.09280273 88.73056641 862.09280273 88.73056641 861.49804688 90.49609375 C860.69699113 92.86362918 859.89488058 95.23080795 859.09179688 97.59765625 C858.51461914 99.31275391 858.51461914 99.31275391 857.92578125 101.0625 C857.40624878 102.59583984 857.40624878 102.59583984 856.8762207 104.16015625 C855.84658348 107.3263552 855.84658348 107.3263552 855 112 C742.14 112.33 629.28 112.66 513 113 C526.46461172 122.72448764 526.46461172 122.72448764 539.9375 132.4375 C546.95771274 137.49991157 553.93052927 142.62443058 560.89208984 147.76708984 C569.21502749 153.90919634 577.60432215 159.95790683 586 166 C596.00550398 173.20063208 605.97688478 180.44250786 615.89208984 187.76708984 C623.4766884 193.36432174 631.1158833 198.88408627 638.76611328 204.39111328 C643.26523169 207.63146195 647.75824119 210.88027702 652.25244141 214.12744141 C655.987945 216.82598022 659.7248148 219.52257953 663.46484375 222.21484375 C671.97920681 228.34756679 680.45216202 234.53232789 688.89208984 240.76708984 C697.21502749 246.90919634 705.60432215 252.95790683 714 259 C724.00550398 266.20063208 733.97688478 273.44250786 743.89208984 280.76708984 C749.26075797 284.72902405 754.65213228 288.65773368 760.0625 292.5625 C760.78880615 293.08908203 761.5151123 293.61566406 762.26342773 294.15820312 C766.17839311 296.99095123 770.1174704 299.7812068 774.09375 302.52734375 C774.92511475 303.10863037 775.75647949 303.68991699 776.61303711 304.28881836 C778.20982076 305.40432285 779.8145153 306.50861351 781.42797852 307.59985352 C782.50196899 308.35480103 782.50196899 308.35480103 783.59765625 309.125 C784.54910522 309.77855469 784.54910522 309.77855469 785.51977539 310.4453125 C787.56961608 312.59827069 787.80340078 314.04726192 788 317 C787.35083008 319.83984375 787.35083008 319.83984375 786.26953125 322.9375 C785.87830078 324.08089844 785.48707031 325.22429687 785.08398438 326.40234375 C784.66439453 327.58957031 784.24480469 328.77679687 783.8125 330 C783.00498971 332.33280749 782.1989957 334.66614041 781.39453125 337 C780.99121582 338.16466797 780.58790039 339.32933594 780.17236328 340.52929688 C778.69212758 344.91143573 777.34550843 349.32812296 776.00268555 353.75390625 C773.91599861 360.50934561 771.61428765 367.19516736 769.35546875 373.89453125 C768.98035156 375.01214844 768.60523438 376.12976563 768.21875 377.28125 C767.88810547 378.26158203 767.55746094 379.24191406 767.21679688 380.25195312 C765.41126556 385.81345326 763.71959083 391.41132981 762 397 C758.7 406.57 755.4 416.14 752 426 C503.84 426 255.68 426 0 426 C0 285.42 0 144.84 0 0 Z " fill="#34B233" transform="translate(0,427)"/>
<path d="M0 0 C293.7 0 587.4 0 890 0 C890 140.58 890 281.16 890 426 C641.84 426 393.68 426 138 426 C125 389 125 389 120 372 C118.6969112 368.14996492 117.37742354 364.32197761 116 360.5 C113.35643437 353.03931162 110.88506603 345.57388774 108.73583984 337.95605469 C107.76506261 334.53204076 106.7311532 331.15513825 105.55078125 327.796875 C105.31254639 327.11625 105.07431152 326.435625 104.82885742 325.734375 C104.16985089 323.87644747 103.49562769 322.02393702 102.8203125 320.171875 C101.53291968 315.19395611 101.53291968 315.19395611 103 312 C105.42510576 309.72772014 108.12464838 307.91813142 110.875 306.0625 C112.52947435 304.90873926 114.18309325 303.75375103 115.8359375 302.59765625 C116.69155273 302.00484863 117.54716797 301.41204102 118.42871094 300.80126953 C122.50862819 297.94315811 126.50169168 294.97064566 130.5 292 C138.87759868 285.80737772 147.31111095 279.69523005 155.76611328 273.60888672 C159.51359769 270.90987882 163.25661201 268.20468506 167 265.5 C171.48610379 262.25868547 175.97304831 259.01858046 180.46484375 255.78515625 C188.17462973 250.23195376 195.85757631 244.64562795 203.5 239 C213.35407821 231.72057378 223.28574334 224.55169676 233.22949219 217.39550781 C241.68593036 211.3076125 250.11888909 205.19131259 258.5 199 C266.87948458 192.80988881 275.31107363 186.69525691 283.76611328 180.60888672 C287.51359769 177.90987882 291.25661201 175.20468506 295 172.5 C299.48610379 169.25868547 303.97304831 166.01858046 308.46484375 162.78515625 C316.17462973 157.23195376 323.85757631 151.64562795 331.5 146 C340.61802701 139.26431113 349.80144466 132.62553287 359 126 C364.94 121.71 370.88 117.42 377 113 C264.14 112.67 151.28 112.34 35 112 C32.525 103.585 32.525 103.585 30 95 C28.69690891 91.14995815 27.37746105 87.32196939 26 83.5 C23.41768511 76.21469823 21.03178638 68.92991861 18.93359375 61.4921875 C17.18789083 55.41112964 15.10965955 49.46324588 13 43.5 C10.33626484 35.96906319 7.8483352 28.4329463 5.66333008 20.74951172 C4.18127349 15.54152521 2.49848986 10.42654435 0.69921875 5.3203125 C0 3 0 3 0 0 Z " fill="#34B233" transform="translate(1030,427)"/>
<path d="M0 0 C0.66 0 1.32 0 2 0 C2.30922394 0.96192513 2.30922394 0.96192513 2.62469482 1.94328308 C5.3304774 10.35887659 8.0392662 18.77350024 10.75 27.1875 C10.97278122 27.87903671 11.19556244 28.57057343 11.4250946 29.2830658 C18.30196929 50.62685639 25.24476034 71.94801967 32.25 93.25 C38.52470223 112.33076016 44.72347098 131.43330729 50.81323242 150.57394409 C57.71015179 172.23846113 64.81050015 193.83545511 71.93082619 215.42735195 C72.85559969 218.23208892 73.77953276 221.03710245 74.70343399 223.84212685 C75.33493875 225.75789989 75.96796076 227.67317258 76.6010437 229.58842468 C78.85582571 236.43140012 81.02996353 243.29312023 83.13409424 250.18388367 C84.11633393 253.37834357 85.15067304 256.5519955 86.21875 259.71875 C86.78142578 261.39517578 86.78142578 261.39517578 87.35546875 263.10546875 C87.92201172 264.78576172 87.92201172 264.78576172 88.5 266.5 C90.73703787 273.13476421 92.94812295 279.76921682 94.984375 286.46875 C96.36658873 291.0075669 97.82845105 295.50912405 99.359375 300 C99.75253906 301.15371094 100.14570312 302.30742188 100.55078125 303.49609375 C101.36147409 305.86479563 102.17670136 308.23194968 102.99609375 310.59765625 C103.38410156 311.74105469 103.77210938 312.88445312 104.171875 314.0625 C104.5234668 315.08472656 104.87505859 316.10695313 105.23730469 317.16015625 C106 320 106 320 106 325 C219.19 325 332.38 325 449 325 C443.37641723 330.62358277 443.37641723 330.62358277 440.20703125 332.875 C439.50392822 333.37829834 438.8008252 333.88159668 438.07641602 334.40014648 C437.32932373 334.92809814 436.58223145 335.4560498 435.8125 336 C434.19264523 337.15746377 432.57285535 338.31501836 430.953125 339.47265625 C430.12876953 340.05934082 429.30441406 340.64602539 428.45507812 341.25048828 C424.64665385 343.96440717 420.85377921 346.69970297 417.0625 349.4375 C416.32362549 349.97052734 415.58475098 350.50355469 414.82348633 351.05273438 C409.35769631 355.00205588 403.92382609 358.99329932 398.5 363 C390.12051542 369.19011119 381.68892637 375.30474309 373.23388672 381.39111328 C369.48640231 384.09012118 365.74338799 386.79531494 362 389.5 C357.51389621 392.74131453 353.02695169 395.98141954 348.53515625 399.21484375 C340.82537027 404.76804624 333.14242369 410.35437205 325.5 416 C315.64592179 423.27942622 305.71425666 430.44830324 295.77050781 437.60449219 C287.31406964 443.6923875 278.88111091 449.80868741 270.5 456 C262.12051542 462.19011119 253.68892637 468.30474309 245.23388672 474.39111328 C241.48640231 477.09012118 237.74338799 479.79531494 234 482.5 C229.51389621 485.74131453 225.02695169 488.98141954 220.53515625 492.21484375 C211.93891529 498.4066534 203.38564659 504.6523749 194.86621094 510.94946289 C187.96501745 516.04323524 181.00042157 521.04374721 174 526 C174.6181245 532.55027455 176.67045909 538.42824281 178.8125 544.625 C181.31864407 551.9506519 183.71985584 559.28992752 185.9753418 566.69677734 C187.72252253 572.32921845 189.61595127 577.91215582 191.5 583.5 C192.26196677 585.75989461 193.02238809 588.0203109 193.78125 590.28125 C194.11189453 591.26158203 194.44253906 592.24191406 194.78320312 593.25195312 C195.83900023 596.50407937 196.85011988 599.76441957 197.84863281 603.03442383 C200.01819154 610.11084146 202.31775047 617.14062458 204.640625 624.16796875 C205.08407886 625.51326291 205.52736763 626.85861149 205.97050476 628.20401001 C206.90879741 631.05247712 207.84760199 633.90077462 208.78683472 636.74893188 C215.92805791 658.40806219 223.02835712 680.07800311 229.9375 701.8125 C236.08795618 721.15625364 242.39768676 740.44502355 248.74982834 759.72322083 C256.02848102 781.8140111 263.27623193 803.91308221 270.375 826.0625 C270.714104 827.11751709 271.05320801 828.17253418 271.40258789 829.25952148 C272.34181508 832.18374918 273.27716723 835.10918214 274.2109375 838.03515625 C274.48267792 838.88062515 274.75441833 839.72609406 275.03439331 840.59718323 C276.23506111 844.37763911 277.34156781 848.07852795 278 852 C272.36427501 848.94700461 267.30908296 845.40686964 262.1875 841.5625 C260.49405281 840.30262801 258.80002874 839.0435311 257.10546875 837.78515625 C255.82615479 836.83406982 255.82615479 836.83406982 254.52099609 835.86376953 C250.70466821 833.04236269 246.85385431 830.26981119 243 827.5 C236.8031104 823.04027682 230.64023312 818.53739874 224.5 814 C216.12062325 807.80974505 207.68892429 801.69525542 199.23388672 795.60888672 C194.73476831 792.36853805 190.24175881 789.11972298 185.74755859 785.87255859 C182.012055 783.17401978 178.2751852 780.47742047 174.53515625 777.78515625 C166.02079319 771.65243321 157.54783798 765.46767211 149.10791016 759.23291016 C140.78497251 753.09080366 132.39567785 747.04209317 124 741 C113.99449602 733.79936792 104.02311522 726.55749214 94.10791016 719.23291016 C86.5233116 713.63567826 78.8841167 708.11591373 71.23388672 702.60888672 C66.73476831 699.36853805 62.24175881 696.11972298 57.74755859 692.87255859 C54.012055 690.17401978 50.2751852 687.47742047 46.53515625 684.78515625 C38.68 679.12728249 30.85363277 673.43327759 23.0625 667.6875 C22.26448975 667.10162109 21.46647949 666.51574219 20.64428711 665.91210938 C17.24430819 663.41303425 13.85760204 660.90623454 10.53515625 658.3046875 C9.57480469 657.56476562 8.61445312 656.82484375 7.625 656.0625 C6.83351563 655.43472656 6.04203125 654.80695312 5.2265625 654.16015625 C3.08165551 652.83389618 3.08165551 652.83389618 0.72265625 652.94921875 C-3.4054545 654.54242075 -6.66655284 657.10387892 -10.1875 659.75 C-11.80710153 660.94426831 -13.42689858 662.13827151 -15.046875 663.33203125 C-16.2834082 664.24976318 -16.2834082 664.24976318 -17.54492188 665.18603516 C-21.31649314 667.97270725 -25.12864165 670.70215813 -28.9375 673.4375 C-35.15401342 677.91940892 -41.33584434 682.44640144 -47.5 687 C-57.35407821 694.27942622 -67.28574334 701.44830324 -77.22949219 708.60449219 C-85.68593036 714.6923875 -94.11888909 720.80868741 -102.5 727 C-110.87948458 733.19011119 -119.31107363 739.30474309 -127.76611328 745.39111328 C-131.51359769 748.09012118 -135.25661201 750.79531494 -139 753.5 C-143.48610379 756.74131453 -147.97304831 759.98141954 -152.46484375 763.21484375 C-160.17462973 768.76804624 -167.85757631 774.35437205 -175.5 780 C-185.35407821 787.27942622 -195.28574334 794.44830324 -205.22949219 801.60449219 C-214.48855056 808.27020379 -223.70982731 814.98259678 -232.88549805 821.76269531 C-239.05258452 826.31478827 -245.25538669 830.81526407 -251.47875977 835.29003906 C-255.12161395 837.91156631 -258.75144828 840.5479181 -262.35546875 843.22265625 C-263.04415039 843.7328833 -263.73283203 844.24311035 -264.44238281 844.76879883 C-265.7372164 845.73010027 -267.02968445 846.6945993 -268.31933594 847.6628418 C-270.87513121 849.55888026 -272.95809281 850.98603094 -276 852 C-273.24004875 841.08403897 -269.69093539 830.40227559 -266.25 819.6875 C-265.91174194 818.63164703 -265.57348389 817.57579407 -265.22497559 816.48794556 C-257.20671939 791.46894164 -248.98093951 766.51811222 -240.76487732 741.56356812 C-240.52475859 740.8342445 -240.28463985 740.10492088 -240.0372448 739.35349655 C-239.55849605 737.8993723 -239.07973258 736.4452529 -238.60095406 734.99113846 C-234.77059221 723.35663728 -230.96024915 711.715825 -227.1875 700.0625 C-226.95857056 699.35566071 -226.72964111 698.64882141 -226.49377441 697.92056274 C-224.29045387 691.11486306 -222.09712129 684.30598481 -219.91120911 677.49467468 C-218.99219076 674.63143738 -218.07192865 671.76860025 -217.15176392 668.9057312 C-216.53060746 666.97036509 -215.91208581 665.03415393 -215.29370117 663.09790039 C-213.2800457 656.82527066 -211.152365 650.6198872 -208.87109375 644.43994141 C-207.67056777 641.07725737 -206.70654352 637.69070132 -205.75 634.25 C-203.75404132 627.2383903 -201.43226818 620.37144043 -199 613.5 C-196.65616402 606.87536293 -194.40803529 600.26365614 -192.5 593.5 C-190.59196095 586.73633052 -188.34363876 580.12471442 -186 573.5 C-183.3608432 566.03759888 -180.8851498 558.57418466 -178.73583984 550.95605469 C-177.76506261 547.53204076 -176.7311532 544.15513825 -175.55078125 540.796875 C-175.31254639 540.11625 -175.07431152 539.435625 -174.82885742 538.734375 C-174.16985089 536.87644747 -173.49562769 535.02393702 -172.8203125 533.171875 C-171.94262041 529.77813225 -171.63038652 528.21885815 -173 525 C-174.9624015 523.27721166 -176.77049787 521.91399552 -178.9375 520.5 C-180.22339474 519.62217456 -181.50851385 518.74321215 -182.79296875 517.86328125 C-183.47794434 517.40002441 -184.16291992 516.93676758 -184.86865234 516.45947266 C-188.54730205 513.94046143 -192.14376448 511.30861179 -195.75 508.6875 C-197.28747227 507.57512246 -198.82523559 506.4631471 -200.36328125 505.3515625 C-201.1310791 504.79629883 -201.89887695 504.24103516 -202.68994141 503.66894531 C-204.95180829 502.03481701 -207.21576308 500.4036287 -209.48046875 498.7734375 C-217.98992059 492.64502803 -226.45739685 486.46380502 -234.89208984 480.23291016 C-243.21502749 474.09080366 -251.60432215 468.04209317 -260 462 C-270.00550398 454.79936792 -279.97688478 447.55749214 -289.89208984 440.23291016 C-297.4766884 434.63567826 -305.1158833 429.11591373 -312.76611328 423.60888672 C-317.26523169 420.36853805 -321.75824119 417.11972298 -326.25244141 413.87255859 C-329.987945 411.17401978 -333.7248148 408.47742047 -337.46484375 405.78515625 C-345.97920681 399.65243321 -354.45216202 393.46767211 -362.89208984 387.23291016 C-371.21502749 381.09080366 -379.60432215 375.04209317 -388 369 C-397.99556982 361.80651721 -407.96183195 354.57802613 -417.86132812 347.25268555 C-421.90750643 344.26281413 -425.96791866 341.29596277 -430.05859375 338.3671875 C-430.87714844 337.78066406 -431.69570313 337.19414063 -432.5390625 336.58984375 C-434.09529692 335.47716149 -435.65376511 334.36759435 -437.21484375 333.26171875 C-437.91609375 332.76027344 -438.61734375 332.25882813 -439.33984375 331.7421875 C-439.95206787 331.3076123 -440.56429199 330.87303711 -441.19506836 330.42529297 C-443.27363711 328.78391811 -445.12722673 326.87277327 -447 325 C-333.81 325 -220.62 325 -104 325 C-103.67 322.36 -103.34 319.72 -103 317 C-102.29459753 314.58371609 -101.51599144 312.18779572 -100.671875 309.81640625 C-100.44099182 309.15777084 -100.21010864 308.49913544 -99.972229 307.82054138 C-99.23901197 305.7317788 -98.49539792 303.64694338 -97.75 301.5625 C-94.88542099 293.50575147 -92.0750366 285.46667944 -89.72265625 277.2421875 C-86.46851543 265.89746109 -82.69513966 254.71891195 -78.99276733 243.51443481 C-76.73764425 236.68918692 -74.49333333 229.86038044 -72.25 223.03125 C-72.02384695 222.34298189 -71.7976939 221.65471378 -71.56468773 220.94558907 C-67.36940675 208.17323239 -63.26096947 195.37419052 -59.1875 182.5625 C-52.26976307 160.81530606 -45.14918003 139.1371093 -38.00463867 117.46368408 C-31.30175406 97.12809049 -24.69183543 76.76703253 -18.2098999 56.35968018 C-13.96215533 42.99409806 -9.60270699 29.68091298 -4.91479492 16.46264648 C-2.98732786 11.011307 -1.28475865 5.63941426 0 0 Z " fill="#FEFEFE" transform="translate(959,214)"/>
</svg>
